<?xml version="1.0" standalone="no"?>
<!DOCTYPE svg PUBLIC "-//W3C//DTD SVG 20010904//EN"
 "http://www.w3.org/TR/2001/REC-SVG-20010904/DTD/svg10.dtd">
<svg version="1.0" xmlns="http://www.w3.org/2000/svg"
 width="306.000000pt" height="156.000000pt" viewBox="0 0 306.000000 156.000000"
 preserveAspectRatio="xMidYMid meet">
<metadata>
Created by potrace 1.10, written by Peter Selinger 2001-2011
</metadata>
<g transform="translate(0.000000,156.000000) scale(0.100000,-0.100000)"
fill="#e51818" stroke="none">
<path d="M466 1295 c-3 -10 -19 -15 -43 -15 -31 0 -42 -6 -58 -30 -12 -18 -29
-30 -42 -30 -28 0 -93 -64 -93 -91 0 -11 -7 -22 -15 -25 -8 -4 -15 -17 -15
-30 0 -14 -7 -27 -15 -30 -8 -4 -15 -18 -15 -34 0 -15 -7 -33 -15 -40 -12 -10
-15 -41 -15 -156 0 -78 4 -145 9 -148 5 -3 12 -18 16 -33 3 -16 13 -36 22 -45
8 -9 12 -21 9 -26 -6 -10 23 -52 61 -89 13 -12 23 -25 23 -28 0 -13 42 -45 60
-45 11 0 23 -7 26 -15 4 -8 16 -15 28 -15 12 0 31 -7 43 -15 31 -22 352 -23
368 -1 8 10 22 13 52 9 38 -5 42 -3 67 33 l26 39 0 211 c0 179 -2 213 -15 218
-8 3 -15 17 -15 31 l0 25 -175 0 c-214 0 -215 0 -215 -110 0 -89 11 -97 121
-82 41 5 77 8 82 5 11 -6 8 -162 -3 -184 -9 -17 -22 -19 -104 -19 -74 0 -95 3
-100 15 -3 8 -14 15 -26 15 -20 0 -89 66 -90 86 0 6 -6 17 -14 23 -11 10 -26
96 -26 161 -1 58 15 131 31 146 11 9 19 24 19 32 0 21 68 82 91 82 11 0 22 7
25 15 5 12 26 15 99 15 70 0 96 -4 105 -15 7 -8 28 -15 46 -15 19 0 34 -4 34
-9 0 -5 19 -20 43 -34 l42 -25 22 26 c18 22 22 40 23 92 0 60 -3 68 -35 103
-27 29 -41 37 -70 37 -22 0 -38 6 -41 15 -5 12 -33 15 -169 15 -136 0 -164 -3
-169 -15z m314 -51 c0 -12 7 -15 30 -12 25 4 36 -1 60 -29 19 -21 30 -45 30
-63 0 -33 -19 -40 -40 -15 -7 8 -24 15 -39 15 -14 0 -35 7 -45 15 -15 11 -49
15 -131 15 -111 0 -112 0 -161 -35 -27 -19 -53 -35 -59 -35 -10 -1 -55 -65
-55 -79 0 -5 -7 -14 -15 -21 -8 -7 -15 -29 -15 -49 -1 -20 -7 -47 -15 -61 -18
-32 -18 -75 0 -125 8 -22 14 -54 15 -71 0 -52 92 -174 131 -174 7 0 21 -8 32
-17 16 -15 36 -18 123 -15 97 2 105 4 130 29 26 26 26 28 22 135 -2 59 -8 111
-12 115 -4 4 -37 9 -74 11 -104 5 -112 8 -112 41 0 28 3 30 54 36 81 10 233 2
248 -13 9 -9 14 -63 16 -197 3 -164 1 -186 -15 -204 -11 -13 -29 -21 -48 -21
-17 0 -40 -7 -51 -15 -28 -21 -296 -22 -314 0 -7 8 -26 15 -42 15 -19 0 -41
11 -61 30 -18 16 -40 30 -49 30 -10 0 -18 7 -18 15 0 8 -7 15 -15 15 -8 0 -15
8 -15 19 0 10 -7 24 -15 31 -8 7 -15 23 -15 35 0 13 -7 25 -15 29 -10 3 -15
19 -15 43 -1 21 -7 49 -15 63 -19 33 -19 131 0 177 8 19 15 44 15 55 0 33 59
144 96 181 19 19 51 43 72 53 20 10 40 23 44 28 3 5 17 10 29 11 13 1 25 7 27
13 2 8 49 12 153 12 130 0 149 -2 149 -16z"/>
<path d="M1027 1285 c-16 -23 -17 -27 -3 -47 9 -12 16 -34 16 -49 0 -15 7 -40
15 -55 8 -16 15 -37 15 -47 0 -10 7 -20 15 -23 9 -4 15 -19 15 -39 0 -18 7
-46 15 -61 8 -16 15 -40 15 -55 0 -14 4 -29 9 -35 6 -5 13 -25 16 -44 3 -19
10 -39 14 -45 5 -5 12 -29 16 -52 4 -24 11 -45 16 -49 5 -3 9 -15 9 -28 0 -13
9 -31 20 -41 12 -11 20 -31 20 -50 0 -18 7 -46 15 -61 8 -16 15 -39 15 -50 0
-22 12 -50 43 -95 17 -25 20 -26 118 -24 l100 2 35 38 c24 27 34 48 34 71 0
18 7 39 15 48 8 8 15 26 15 40 0 14 9 43 20 63 11 21 20 50 20 65 0 15 5 30
10 33 6 3 10 25 10 48 0 32 5 45 21 55 11 7 18 19 15 27 -2 7 2 19 10 25 8 7
14 29 14 50 0 21 7 43 15 50 8 7 15 27 15 44 0 18 7 41 15 52 8 10 15 38 15
60 0 28 5 44 15 48 8 3 15 17 15 31 0 14 7 28 15 31 21 9 19 50 -5 74 -17 17
-33 20 -105 20 -84 0 -85 0 -85 -25 0 -14 -7 -28 -15 -31 -10 -4 -15 -20 -15
-49 0 -29 -5 -45 -15 -49 -11 -4 -15 -20 -15 -56 0 -36 -4 -52 -15 -56 -8 -4
-15 -18 -15 -34 0 -15 -7 -33 -15 -40 -9 -8 -15 -30 -15 -57 0 -30 -5 -45 -15
-49 -10 -4 -15 -20 -15 -49 0 -26 -6 -47 -15 -55 -9 -8 -15 -30 -15 -59 -1
-39 -6 -50 -30 -71 -24 -19 -30 -32 -30 -62 0 -64 53 -42 63 26 4 22 13 44 22
48 9 6 15 23 15 45 0 20 6 41 15 47 9 6 18 34 22 64 3 28 10 52 14 52 5 0 9 9
9 20 0 12 6 33 14 48 7 15 17 46 21 70 4 23 11 42 16 42 5 0 9 14 9 30 0 17 9
47 20 67 11 21 20 50 20 65 0 22 6 28 32 34 18 3 38 14 44 22 6 9 18 13 28 9
21 -8 22 -70 1 -87 -8 -7 -15 -29 -15 -50 0 -24 -5 -40 -15 -44 -10 -3 -15
-19 -15 -44 0 -23 -6 -45 -15 -52 -8 -7 -15 -22 -15 -34 0 -12 -7 -31 -15 -42
-8 -10 -15 -33 -15 -50 0 -17 -7 -37 -15 -44 -8 -7 -15 -27 -15 -45 0 -18 -7
-38 -15 -45 -8 -7 -15 -29 -15 -50 0 -24 -5 -40 -15 -44 -10 -3 -15 -19 -15
-44 0 -23 -6 -45 -15 -52 -8 -7 -15 -25 -15 -40 0 -15 -6 -33 -14 -40 -8 -6
-16 -21 -18 -33 -3 -21 -8 -22 -93 -22 -85 0 -90 1 -93 22 -2 12 -10 27 -18
33 -8 7 -14 27 -14 45 0 18 -7 38 -15 45 -8 7 -15 27 -15 45 0 18 -7 38 -15
45 -8 7 -15 27 -15 44 0 17 -7 40 -15 50 -8 11 -15 32 -15 47 0 14 -7 32 -15
39 -8 7 -15 27 -15 45 0 18 -7 38 -15 45 -8 7 -15 27 -15 45 0 18 -7 38 -15
45 -8 7 -15 29 -15 50 0 24 -5 40 -15 44 -10 3 -15 19 -15 44 0 21 -7 47 -15
58 -19 25 -19 30 5 54 27 27 48 25 62 -5 6 -13 15 -22 20 -19 15 9 46 -39 54
-81 3 -22 11 -43 17 -46 5 -4 11 -23 13 -43 2 -20 10 -46 19 -58 8 -13 15 -34
15 -48 1 -14 7 -36 15 -50 8 -14 14 -35 15 -46 0 -12 7 -24 15 -28 10 -4 15
-19 15 -49 0 -27 6 -49 14 -57 8 -6 16 -28 18 -48 2 -25 8 -37 18 -37 22 0 27
103 6 111 -11 4 -16 19 -16 49 0 29 -5 45 -15 49 -10 4 -15 19 -15 49 0 27 -6
49 -15 57 -8 7 -15 25 -15 40 0 16 -7 30 -15 34 -10 3 -15 19 -15 44 0 23 -6
45 -15 52 -9 8 -15 30 -15 60 0 33 -5 50 -15 54 -8 3 -15 16 -15 29 0 44 -28
57 -121 57 -78 -1 -85 -2 -102 -25z"/>
<path d="M1997 1296 c-3 -8 -16 -16 -29 -18 l-23 -3 -2 -445 c-3 -530 -12
-493 117 -498 l77 -4 23 39 c22 37 22 43 16 200 -7 154 -6 162 12 167 21 7 52
-2 52 -14 0 -5 10 -10 23 -12 14 -2 23 -11 25 -24 2 -12 12 -30 23 -40 10 -9
19 -25 19 -35 0 -10 5 -21 10 -24 6 -3 10 -14 10 -24 0 -10 6 -24 14 -30 8 -7
17 -30 21 -52 4 -21 11 -39 16 -39 5 0 9 -10 9 -23 0 -13 12 -38 26 -55 26
-31 29 -32 105 -32 74 0 79 1 98 29 25 34 27 76 6 85 -8 3 -15 16 -15 30 0 13
-7 26 -15 30 -9 3 -15 19 -15 41 0 22 -6 38 -15 41 -8 4 -15 18 -15 34 0 16
-7 30 -15 34 -8 3 -15 17 -15 31 0 16 -6 25 -15 25 -9 0 -15 9 -15 25 0 13 -7
28 -16 33 -21 12 -14 46 11 50 30 6 75 53 75 79 0 13 5 23 10 23 6 0 10 42 10
105 0 119 -3 127 -83 207 -43 43 -53 48 -91 48 -27 0 -48 6 -56 15 -18 22
-365 22 -373 1z m348 -45 c3 -6 26 -13 50 -17 25 -3 45 -10 45 -14 0 -4 11
-11 25 -14 17 -4 25 -12 23 -24 -2 -11 3 -17 15 -16 10 1 17 -5 17 -16 0 -10
7 -23 15 -30 17 -14 22 -155 5 -165 -5 -3 -10 -16 -10 -28 0 -26 -67 -97 -92
-97 -27 0 -23 -46 7 -78 14 -15 25 -32 25 -39 0 -7 5 -13 10 -13 6 0 10 -7 10
-15 0 -8 9 -32 20 -52 11 -21 20 -45 20 -55 0 -9 5 -20 10 -23 6 -3 10 -15 10
-25 0 -10 7 -25 15 -33 8 -8 16 -35 17 -58 l3 -44 -60 0 -60 0 -3 37 c-2 20
-10 42 -18 48 -8 7 -14 21 -14 32 0 10 -7 21 -15 24 -8 4 -15 18 -15 34 0 43
-97 180 -127 180 -7 0 -13 4 -13 9 0 15 -39 23 -75 17 -29 -6 -34 -12 -50 -61
-10 -33 -20 -108 -23 -188 l-7 -132 -47 -3 c-42 -3 -48 -1 -53 20 -9 35 -1
821 8 836 10 15 322 18 332 3z"/>
<path d="M2159 1163 c-20 -5 -39 -85 -39 -168 0 -81 23 -131 64 -139 48 -10
91 -7 112 9 10 8 27 15 36 15 9 0 35 17 58 38 38 37 40 42 40 96 0 39 -4 58
-14 62 -8 3 -17 15 -20 27 -10 39 -76 67 -153 66 -37 -1 -75 -3 -84 -6z m151
-56 c65 -30 80 -49 80 -97 0 -67 -33 -89 -137 -93 l-78 -2 0 90 c0 120 2 124
62 118 26 -2 59 -10 73 -16z"/>
</g>
</svg>
